<svg xmlns="http://www.w3.org/2000/svg" data-name="Capa 1" width="169.71" height="49.11"><rect id="backgroundrect" width="100%" height="100%" x="0" y="0" fill="none" stroke="none"/><title>assets</title><g class="currentLayer" style=""><title>Layer 1</title><path d="M52.33,19.5A.79.79,0,0,1,52.74,18H48.48a.76.76,0,0,1,.67.62.78.78,0,0,1-.36.83.68.68,0,0,1-.39.06.69.69,0,0,1-.13-.05l.09,24.27h4.37l.05-24.23-.07,0A.64.64,0,0,1,52.33,19.5Zm-7.65,0A.79.79,0,0,1,45.1,18H40.84a.76.76,0,0,1,.67.62.77.77,0,0,1-.37.83.66.66,0,0,1-.38.06.64.64,0,0,1-.16-.06l.12,24.28h4.37L45.2,19.5a.58.58,0,0,1-.13.05A.65.65,0,0,1,44.68,19.5ZM54.81,8.75a.86.86,0,0,0-.85.78l-.09,1.14h1.91l-.12-1.14A.88.88,0,0,0,54.81,8.75ZM42.39,10.67h.37V5.43L47,9.09V4L42.39,0Zm29.4,30.58h3.38V33H71.79ZM68.27,8.75a.86.86,0,0,0-.85.78l-.09,1.14h1.91l-.13-1.14A.86.86,0,0,0,68.27,8.75Zm-3.82,9.91a.78.78,0,0,1-.37.83.67.67,0,0,1-.39.06.58.58,0,0,1-.18-.07l.15,24.29h2.62V18h-2.5A.76.76,0,0,1,64.45,18.65ZM60,19.5A.79.79,0,0,1,60.39,18H56.13a.76.76,0,0,1,.68.62.78.78,0,0,1-.37.83.67.67,0,0,1-.39.06.52.52,0,0,1-.18-.07L56,43.76h4.37l.05-24.24-.08,0A.62.62,0,0,1,60,19.5ZM37,19.5A.79.79,0,0,1,37.45,18H33.19a.76.76,0,0,1,.68.62.79.79,0,0,1-.37.83.67.67,0,0,1-.39.06.82.82,0,0,1-.17-.06l.13,24.28h4.37l.08-24.24a.39.39,0,0,1-.1,0A.66.66,0,0,1,37,19.5ZM0,49.11H8.72V10.67H0ZM31.18,8.75a.86.86,0,0,0-.85.78l-.09,1.14h1.91L32,9.53A.86.86,0,0,0,31.18,8.75ZM10.56,41.25H14V33H10.56ZM59.25,7.44c.29.29,1.08,1,1.08,1l.36.34a12.11,12.11,0,0,0-.93,1.86h3.84a.73.73,0,0,1-.14-.45,8.84,8.84,0,0,1,.45-1.74V5.87c.51,0,.54.15.54.15s0-.2,0-.2c0-.8-1.72-.52-2-.47h0c0,.22,0,1.65,0,2s-.07.11-.31-.12L59.47,4.67l-.33,2.18a.54.54,0,0,0,0,.11V7A.52.52,0,0,0,59.25,7.44ZM10.56,27.58H14v-8.3H10.56ZM17.72,8.75a.86.86,0,0,0-.85.78l-.09,1.14H18.7l-.12-1.14A.86.86,0,0,0,17.72,8.75ZM29.39,19.5A.79.79,0,0,1,29.8,18H25.54a.77.77,0,0,1,.68.62.78.78,0,0,1-.37.83.65.65,0,0,1-.38.06.82.82,0,0,1-.14-.06l.1,24.27H29.8l.08-24.24a.62.62,0,0,1-.1,0A.64.64,0,0,1,29.39,19.5Zm-3.21-8.83a12.06,12.06,0,0,0-.93-1.86l1.44-1.37a.38.38,0,0,0,.13-.22v0a.68.68,0,0,0,0-.19V7h0l-.35-2.29s-2.21,2-2.7,2.56c-.33.38-.31.53-.31.12s0-1.77,0-2h0c-.27,0-2-.33-2,.47a1.41,1.41,0,0,0,0,.2s0-.15.54-.15v2.6a8.66,8.66,0,0,1,.45,1.74.72.72,0,0,1-.14.45ZM21.74,19.5A.79.79,0,0,1,22.16,18H19.52V43.76h2.64l.11-24.26a.58.58,0,0,1-.14.05A.64.64,0,0,1,21.74,19.5Zm86.19,10.9-1-2.23L106,30.39Zm50,0-1-2.23-.92,2.23Zm-33.09-2.75v1.9h1a1,1,0,0,0,1.08-1,.91.91,0,0,0-1-.94Zm-38.4,0v4.56h1.41a2.26,2.26,0,0,0,2.46-2.28,2.22,2.22,0,0,0-2.51-2.28Zm49.29,14h-1.06v1.93h1.11c1,0,1.31-.51,1.31-1S136.7,41.65,135.77,41.65Zm-64-14.07h3.38v-8.3H71.79Zm65.37.06h-.81v1.84h.58c.87,0,1.3-.32,1.3-1C138.23,28,138,27.65,137.16,27.65Zm-.81,2.63v1.93h1.11c1,0,1.32-.51,1.32-1s-.43-1-1.36-1ZM121.95,39a2.34,2.34,0,1,0,2.4,2.34A2.3,2.3,0,0,0,121.95,39Zm14.64.92c0-.46-.26-.86-1.07-.86h-.81v1.84h.59C136.17,40.86,136.59,40.53,136.59,39.88ZM95.47,21a2.34,2.34,0,1,0-2.39-2.34A2.31,2.31,0,0,0,95.47,21ZM77.07,10.67V49.1h92.65V10.67ZM132,15.54a3.16,3.16,0,1,1-3.3,3.15A3.13,3.13,0,0,1,132,15.54Zm-5.83,0a2.44,2.44,0,0,1,1.37.43v1a2.06,2.06,0,0,0-1.44-.64c-.57,0-1,.3-1,.73,0,1.18,2.66,1.16,2.66,3.12a1.64,1.64,0,0,1-1.72,1.67,2.71,2.71,0,0,1-1.72-.57V20.16a2.07,2.07,0,0,0,1.62.89c.69,0,1-.43,1-.77,0-1.27-2.66-1.42-2.66-3.1A1.65,1.65,0,0,1,126.19,15.54Zm-6.28.08h3.49v.79h-2.6v1.86h2.52v.79h-2.52V21h2.69v.79H119.9Zm-5.65,0h1.55c1.24,0,2,.66,2,1.72a1.53,1.53,0,0,1-1,1.5,5,5,0,0,1,1.37,1.7c.26.42.41.63.84,1.22h-1.05l-.81-1.26c-.81-1.26-1.18-1.41-1.63-1.41h-.37v2.67h-.88Zm-3.84-.08a5,5,0,0,1,2.19.52V17a4.58,4.58,0,0,0-2.21-.61,2.35,2.35,0,1,0,.12,4.69,4.37,4.37,0,0,0,1.33-.24V19.53h-1.18v-.79h2.06v2.6a5.35,5.35,0,0,1-2.34.51,3.1,3.1,0,0,1-3.27-3.12A3.18,3.18,0,0,1,110.41,15.54Zm-10.34.08h.7l4.16,4.76V15.62h.83v6.14H105L100.9,17v4.73h-.83Zm-4.6-.08a3.16,3.16,0,1,1-3.3,3.15A3.13,3.13,0,0,1,95.47,15.54Zm-6.51,0a5.34,5.34,0,0,1,2.11.5V17A4,4,0,0,0,89,16.35,2.34,2.34,0,0,0,86.5,18.7,2.3,2.3,0,0,0,89,21a4,4,0,0,0,2.14-.69v1a4.51,4.51,0,0,1-2.23.54,3.14,3.14,0,0,1-3.32-3.07A3.2,3.2,0,0,1,89,15.54ZM85.56,24h74.76v.76H85.56ZM160,33h-.9l-.82-1.81h-2.61L154.94,33H154l2.64-6.18h.62Zm-9-.73a4,4,0,0,0,2.15-.7v1a4.5,4.5,0,0,1-2.23.54A3.14,3.14,0,0,1,147.64,30,3.2,3.2,0,0,1,151,26.77a5.34,5.34,0,0,1,2.11.51v.95a4,4,0,0,0-2.12-.64,2.34,2.34,0,0,0-2.45,2.35A2.3,2.3,0,0,0,151,32.27Zm-4.74-5.42V33h-.88V26.85Zm-1.88,5.35V33h-3.66V26.85h.88v5.35Zm-4.73-.85c0,.76-.57,1.64-2.11,1.64h-2.11V26.85h1.78c1.33,0,1.89.79,1.89,1.57a1.31,1.31,0,0,1-.94,1.31v0A1.62,1.62,0,0,1,139.68,31.36Zm-9.69.39a1.78,1.78,0,0,0,1.32.52,2,2,0,0,0,1.44-.5,1.79,1.79,0,0,0,.39-1.34V26.85H134v3.73c0,1.51-.9,2.5-2.73,2.5a2.34,2.34,0,0,1-2.56-2.41V26.85h.88v3.63C129.62,31.18,129.71,31.47,130,31.75Zm1.07-5,.6-1.32h.9l-1,1.32Zm-3.19,1.9c0,1-.65,1.72-2.07,1.72h-.92V33H124V26.85h1.92A1.72,1.72,0,0,1,127.87,28.62Zm-5.16.88v.79h-2.51v1.91h2.69V33h-3.57V26.85h3.49v.79h-2.6V29.5Zm-5.14,2.28c.26.42.41.63.84,1.22h-1.06l-.81-1.26c-.81-1.26-1.18-1.41-1.63-1.41h-.37V33h-.88V26.85h1.55c1.24,0,2,.66,2,1.72a1.54,1.54,0,0,1-1,1.5A5,5,0,0,1,117.57,31.78ZM110,33h-.9l-.82-1.81h-2.61L104.9,33H104l2.64-6.18h.62Zm-6.33-.79V33H100V26.85h.88v5.35ZM96,29.5v.79H93.45v1.91h2.69V33H92.57V26.85h3.49v.79h-2.6V29.5Zm-4.71.42A3.11,3.11,0,0,1,88,33H85.6V26.85H88A3,3,0,0,1,91.26,29.93ZM88,44.37H85.6V38.23H88a3,3,0,0,1,3.27,3.07A3.11,3.11,0,0,1,88,44.37Zm8.15,0H92.57V38.23h3.49V39h-2.6v1.86H96v.79H93.45v1.91h2.69Zm9.19-.46a4.52,4.52,0,0,1-2.23.54,3.14,3.14,0,0,1-3.32-3.07,3.2,3.2,0,0,1,3.37-3.24,5.34,5.34,0,0,1,2.11.5v.95a4.05,4.05,0,0,0-2.12-.64,2.34,2.34,0,0,0-2.45,2.35,2.3,2.3,0,0,0,2.49,2.33,4,4,0,0,0,2.15-.69Zm4.32.54A3.16,3.16,0,1,1,113,41.3,3.14,3.14,0,0,1,109.65,44.46Zm8.28-.08h-3.66V38.23h.88v5.35h2.77Zm4,.08a3.16,3.16,0,1,1,3.32-3.16A3.15,3.15,0,0,1,121.93,44.46Zm10.35-.08h-.89V39.59h0L129.48,42h-.14l-1.89-2.38h0v4.79h-.88V38.23h.83l2,2.52,2-2.52h.82Zm3.66,0h-2.11V38.23h1.78c1.32,0,1.89.79,1.89,1.57a1.31,1.31,0,0,1-.94,1.32v0a1.62,1.62,0,0,1,1.48,1.6C138,43.49,137.47,44.37,135.93,44.37Zm4.08,0h-.88V38.23H140Zm6,0-.82-1.81H142.6l-.78,1.81h-.9l2.64-6.18h.62l2.75,6.18ZM160.33,36H85.56v-.76h74.77ZM132,21a2.34,2.34,0,1,0-2.39-2.34A2.31,2.31,0,0,0,132,21Zm-15.1-3.73c0-.58-.35-.93-1.21-.93h-.57V18.3h.57C116.65,18.3,116.92,17.82,116.91,17.3ZM109.67,39a2.34,2.34,0,1,0,2.4,2.34A2.3,2.3,0,0,0,109.67,39Zm5.44-11.35h-.57v1.93h.57c.95,0,1.22-.49,1.21-1S116,27.61,115.11,27.61ZM87.84,39H86.48v4.56h1.41a2.26,2.26,0,0,0,2.46-2.28A2.22,2.22,0,0,0,87.84,39Zm55.1,2.75h1.91l-1-2.23Z" id="svg_1" class="selected" fill="#ffffff" fill-opacity="1"/></g></svg>