<?xml version="1.0" encoding="UTF-8" standalone="no"?>
<!DOCTYPE svg PUBLIC "-//W3C//DTD SVG 1.1//EN"
 "http://www.w3.org/Graphics/SVG/1.1/DTD/svg11.dtd">
<!-- Generated by graphviz version 2.40.1 (20161225.0304)
 -->
<!-- Title: dependencies Pages: 1 -->
<svg width="504pt" height="211pt"
 viewBox="0.00 0.00 504.00 211.00" xmlns="http://www.w3.org/2000/svg" xmlns:xlink="http://www.w3.org/1999/xlink">
<g id="graph0" class="graph" transform="scale(1 1) rotate(0) translate(4 207)">
<title>dependencies</title>
<polygon fill="#ffffff" stroke="transparent" points="-4,4 -4,-207 500,-207 500,4 -4,4"/>
<text text-anchor="start" x="227.0091" y="-42.4" font-family="sans-serif" font-weight="bold" font-size="14.00" fill="#000000">Legend</text>
<polygon fill="#ffffb3" stroke="transparent" points="14,-10 14,-30 34,-30 34,-10 14,-10"/>
<text text-anchor="start" x="37.629" y="-15.4" font-family="sans-serif" font-size="14.00" fill="#000000"> &#160;Declarations</text>
<polygon fill="#8dd3c7" stroke="transparent" points="127,-10 127,-30 147,-30 147,-10 127,-10"/>
<text text-anchor="start" x="150.7251" y="-15.4" font-family="sans-serif" font-size="14.00" fill="#000000"> &#160;Module</text>
<polygon fill="#80b1d3" stroke="transparent" points="213,-10 213,-30 233,-30 233,-10 213,-10"/>
<text text-anchor="start" x="236.7812" y="-15.4" font-family="sans-serif" font-size="14.00" fill="#000000"> &#160;Bootstrap</text>
<polygon fill="#fdb462" stroke="transparent" points="310,-10 310,-30 330,-30 330,-10 310,-10"/>
<text text-anchor="start" x="333.6732" y="-15.4" font-family="sans-serif" font-size="14.00" fill="#000000"> &#160;Providers</text>
<polygon fill="#fb8072" stroke="transparent" points="406,-10 406,-30 426,-30 426,-10 406,-10"/>
<text text-anchor="start" x="429.7258" y="-15.4" font-family="sans-serif" font-size="14.00" fill="#000000"> &#160;Exports</text>
<g id="clust1" class="cluster">
<title>cluster_CommissionDetailsPageModule</title>
<polygon fill="none" stroke="#000000" stroke-dasharray="1,5" points="15.5,-70 15.5,-195 480.5,-195 480.5,-70 15.5,-70"/>
</g>
<g id="clust2" class="cluster">
<title>cluster_CommissionDetailsPageModule_declarations</title>
<polygon fill="none" stroke="#000000" points="302.5,-78 302.5,-130 472.5,-130 472.5,-78 302.5,-78"/>
</g>
<g id="clust4" class="cluster">
<title>cluster_CommissionDetailsPageModule_imports</title>
<polygon fill="none" stroke="#000000" points="23.5,-78 23.5,-130 294.5,-130 294.5,-78 23.5,-78"/>
</g>
<!-- CommissionDetailsPage -->
<g id="node1" class="node">
<title>CommissionDetailsPage</title>
<polygon fill="#ffffb3" stroke="#000000" points="464.1526,-122 310.8474,-122 310.8474,-86 464.1526,-86 464.1526,-122"/>
<text text-anchor="middle" x="387.5" y="-99.8" font-family="Times,serif" font-size="14.00" fill="#000000">CommissionDetailsPage</text>
</g>
<!-- CommissionDetailsPageModule -->
<g id="node2" class="node">
<title>CommissionDetailsPageModule</title>
<polygon fill="#8dd3c7" stroke="#000000" points="325.2021,-187 322.2021,-191 301.2021,-191 298.2021,-187 127.7979,-187 127.7979,-151 325.2021,-151 325.2021,-187"/>
<text text-anchor="middle" x="226.5" y="-164.8" font-family="Times,serif" font-size="14.00" fill="#000000">CommissionDetailsPageModule</text>
</g>
<!-- CommissionDetailsPage&#45;&gt;CommissionDetailsPageModule -->
<g id="edge1" class="edge">
<title>CommissionDetailsPage&#45;&gt;CommissionDetailsPageModule</title>
<path fill="none" stroke="#000000" d="M317.8875,-122.1061C317.8875,-122.1061 317.8875,-140.991 317.8875,-140.991"/>
<polygon fill="#000000" stroke="#000000" points="314.3875,-140.9909 317.8875,-150.991 321.3875,-140.991 314.3875,-140.9909"/>
</g>
<!-- IonicImageLoader -->
<g id="node3" class="node">
<title>IonicImageLoader</title>
<polygon fill="#8dd3c7" stroke="#000000" points="286.3892,-122 283.3892,-126 262.3892,-126 259.3892,-122 166.6108,-122 166.6108,-86 286.3892,-86 286.3892,-122"/>
<text text-anchor="middle" x="226.5" y="-99.8" font-family="Times,serif" font-size="14.00" fill="#000000">IonicImageLoader</text>
</g>
<!-- IonicImageLoader&#45;&gt;CommissionDetailsPageModule -->
<g id="edge2" class="edge">
<title>IonicImageLoader&#45;&gt;CommissionDetailsPageModule</title>
<path fill="none" stroke="#000000" d="M226.5,-122.1061C226.5,-122.1061 226.5,-140.991 226.5,-140.991"/>
<polygon fill="#000000" stroke="#000000" points="223.0001,-140.9909 226.5,-150.991 230.0001,-140.991 223.0001,-140.9909"/>
</g>
<!-- DirectivesModule -->
<g id="node4" class="node">
<title>DirectivesModule</title>
<polygon fill="#8dd3c7" stroke="#000000" points="149.0772,-122 146.0772,-126 125.0772,-126 122.0772,-122 31.9228,-122 31.9228,-86 149.0772,-86 149.0772,-122"/>
<text text-anchor="middle" x="90.5" y="-99.8" font-family="Times,serif" font-size="14.00" fill="#000000">DirectivesModule</text>
</g>
<!-- DirectivesModule&#45;&gt;CommissionDetailsPageModule -->
<g id="edge3" class="edge">
<title>DirectivesModule&#45;&gt;CommissionDetailsPageModule</title>
<path fill="none" stroke="#000000" d="M138.4688,-122.1061C138.4688,-122.1061 138.4688,-140.991 138.4688,-140.991"/>
<polygon fill="#000000" stroke="#000000" points="134.9689,-140.9909 138.4688,-150.991 141.9689,-140.991 134.9689,-140.9909"/>
</g>
</g>
</svg>
