<?xml version="1.0" encoding="UTF-8" standalone="no"?>
<!DOCTYPE svg PUBLIC "-//W3C//DTD SVG 1.1//EN"
 "http://www.w3.org/Graphics/SVG/1.1/DTD/svg11.dtd">
<!-- Generated by graphviz version 2.40.1 (20161225.0304)
 -->
<!-- Title: dependencies Pages: 1 -->
<svg width="504pt" height="211pt"
 viewBox="0.00 0.00 504.00 211.00" xmlns="http://www.w3.org/2000/svg" xmlns:xlink="http://www.w3.org/1999/xlink">
<g id="graph0" class="graph" transform="scale(1 1) rotate(0) translate(4 207)">
<title>dependencies</title>
<polygon fill="#ffffff" stroke="transparent" points="-4,4 -4,-207 500,-207 500,4 -4,4"/>
<text text-anchor="start" x="227.0091" y="-42.4" font-family="sans-serif" font-weight="bold" font-size="14.00" fill="#000000">Legend</text>
<polygon fill="#ffffb3" stroke="transparent" points="14,-10 14,-30 34,-30 34,-10 14,-10"/>
<text text-anchor="start" x="37.629" y="-15.4" font-family="sans-serif" font-size="14.00" fill="#000000"> &#160;Declarations</text>
<polygon fill="#8dd3c7" stroke="transparent" points="127,-10 127,-30 147,-30 147,-10 127,-10"/>
<text text-anchor="start" x="150.7251" y="-15.4" font-family="sans-serif" font-size="14.00" fill="#000000"> &#160;Module</text>
<polygon fill="#80b1d3" stroke="transparent" points="213,-10 213,-30 233,-30 233,-10 213,-10"/>
<text text-anchor="start" x="236.7812" y="-15.4" font-family="sans-serif" font-size="14.00" fill="#000000"> &#160;Bootstrap</text>
<polygon fill="#fdb462" stroke="transparent" points="310,-10 310,-30 330,-30 330,-10 310,-10"/>
<text text-anchor="start" x="333.6732" y="-15.4" font-family="sans-serif" font-size="14.00" fill="#000000"> &#160;Providers</text>
<polygon fill="#fb8072" stroke="transparent" points="406,-10 406,-30 426,-30 426,-10 406,-10"/>
<text text-anchor="start" x="429.7258" y="-15.4" font-family="sans-serif" font-size="14.00" fill="#000000"> &#160;Exports</text>
<g id="clust1" class="cluster">
<title>cluster_SenatorsListPageModule</title>
<polygon fill="none" stroke="#000000" stroke-dasharray="1,5" points="103,-70 103,-195 393,-195 393,-70 103,-70"/>
</g>
<g id="clust2" class="cluster">
<title>cluster_SenatorsListPageModule_declarations</title>
<polygon fill="none" stroke="#000000" points="255,-78 255,-130 385,-130 385,-78 255,-78"/>
</g>
<g id="clust4" class="cluster">
<title>cluster_SenatorsListPageModule_imports</title>
<polygon fill="none" stroke="#000000" points="111,-78 111,-130 247,-130 247,-78 111,-78"/>
</g>
<!-- SenatorsListPage -->
<g id="node1" class="node">
<title>SenatorsListPage</title>
<polygon fill="#ffffb3" stroke="#000000" points="376.698,-122 263.302,-122 263.302,-86 376.698,-86 376.698,-122"/>
<text text-anchor="middle" x="320" y="-99.8" font-family="Times,serif" font-size="14.00" fill="#000000">SenatorsListPage</text>
</g>
<!-- SenatorsListPageModule -->
<g id="node2" class="node">
<title>SenatorsListPageModule</title>
<polygon fill="#8dd3c7" stroke="#000000" points="326.2478,-187 323.2478,-191 302.2478,-191 299.2478,-187 169.7522,-187 169.7522,-151 326.2478,-151 326.2478,-187"/>
<text text-anchor="middle" x="248" y="-164.8" font-family="Times,serif" font-size="14.00" fill="#000000">SenatorsListPageModule</text>
</g>
<!-- SenatorsListPage&#45;&gt;SenatorsListPageModule -->
<g id="edge1" class="edge">
<title>SenatorsListPage&#45;&gt;SenatorsListPageModule</title>
<path fill="none" stroke="#000000" d="M294.8875,-122.1061C294.8875,-122.1061 294.8875,-140.991 294.8875,-140.991"/>
<polygon fill="#000000" stroke="#000000" points="291.3875,-140.9909 294.8875,-150.991 298.3875,-140.991 291.3875,-140.9909"/>
</g>
<!-- IonicImageLoader -->
<g id="node3" class="node">
<title>IonicImageLoader</title>
<polygon fill="#8dd3c7" stroke="#000000" points="238.8892,-122 235.8892,-126 214.8892,-126 211.8892,-122 119.1108,-122 119.1108,-86 238.8892,-86 238.8892,-122"/>
<text text-anchor="middle" x="179" y="-99.8" font-family="Times,serif" font-size="14.00" fill="#000000">IonicImageLoader</text>
</g>
<!-- IonicImageLoader&#45;&gt;SenatorsListPageModule -->
<g id="edge2" class="edge">
<title>IonicImageLoader&#45;&gt;SenatorsListPageModule</title>
<path fill="none" stroke="#000000" d="M204.1603,-122.1061C204.1603,-122.1061 204.1603,-140.991 204.1603,-140.991"/>
<polygon fill="#000000" stroke="#000000" points="200.6603,-140.9909 204.1603,-150.991 207.6603,-140.991 200.6603,-140.9909"/>
</g>
</g>
</svg>
