<?xml version="1.0" encoding="UTF-8" standalone="no"?>
<!DOCTYPE svg PUBLIC "-//W3C//DTD SVG 1.1//EN"
 "http://www.w3.org/Graphics/SVG/1.1/DTD/svg11.dtd">
<!-- Generated by graphviz version 2.40.1 (20161225.0304)
 -->
<!-- Title: dependencies Pages: 1 -->
<svg width="504pt" height="211pt"
 viewBox="0.00 0.00 504.00 211.00" xmlns="http://www.w3.org/2000/svg" xmlns:xlink="http://www.w3.org/1999/xlink">
<g id="graph0" class="graph" transform="scale(1 1) rotate(0) translate(4 207)">
<title>dependencies</title>
<polygon fill="#ffffff" stroke="transparent" points="-4,4 -4,-207 500,-207 500,4 -4,4"/>
<text text-anchor="start" x="227.0091" y="-42.4" font-family="sans-serif" font-weight="bold" font-size="14.00" fill="#000000">Legend</text>
<polygon fill="#ffffb3" stroke="transparent" points="14,-10 14,-30 34,-30 34,-10 14,-10"/>
<text text-anchor="start" x="37.629" y="-15.4" font-family="sans-serif" font-size="14.00" fill="#000000"> &#160;Declarations</text>
<polygon fill="#8dd3c7" stroke="transparent" points="127,-10 127,-30 147,-30 147,-10 127,-10"/>
<text text-anchor="start" x="150.7251" y="-15.4" font-family="sans-serif" font-size="14.00" fill="#000000"> &#160;Module</text>
<polygon fill="#80b1d3" stroke="transparent" points="213,-10 213,-30 233,-30 233,-10 213,-10"/>
<text text-anchor="start" x="236.7812" y="-15.4" font-family="sans-serif" font-size="14.00" fill="#000000"> &#160;Bootstrap</text>
<polygon fill="#fdb462" stroke="transparent" points="310,-10 310,-30 330,-30 330,-10 310,-10"/>
<text text-anchor="start" x="333.6732" y="-15.4" font-family="sans-serif" font-size="14.00" fill="#000000"> &#160;Providers</text>
<polygon fill="#fb8072" stroke="transparent" points="406,-10 406,-30 426,-30 426,-10 406,-10"/>
<text text-anchor="start" x="429.7258" y="-15.4" font-family="sans-serif" font-size="14.00" fill="#000000"> &#160;Exports</text>
<g id="clust1" class="cluster">
<title>cluster_NotificationDetailsPageModule</title>
<polygon fill="none" stroke="#000000" stroke-dasharray="1,5" points="85,-70 85,-195 411,-195 411,-70 85,-70"/>
</g>
<g id="clust2" class="cluster">
<title>cluster_NotificationDetailsPageModule_declarations</title>
<polygon fill="none" stroke="#000000" points="237,-78 237,-130 403,-130 403,-78 237,-78"/>
</g>
<g id="clust4" class="cluster">
<title>cluster_NotificationDetailsPageModule_imports</title>
<polygon fill="none" stroke="#000000" points="93,-78 93,-130 229,-130 229,-78 93,-78"/>
</g>
<!-- NotificationDetailsPage -->
<g id="node1" class="node">
<title>NotificationDetailsPage</title>
<polygon fill="#ffffb3" stroke="#000000" points="395.0142,-122 244.9858,-122 244.9858,-86 395.0142,-86 395.0142,-122"/>
<text text-anchor="middle" x="320" y="-99.8" font-family="Times,serif" font-size="14.00" fill="#000000">NotificationDetailsPage</text>
</g>
<!-- NotificationDetailsPageModule -->
<g id="node2" class="node">
<title>NotificationDetailsPageModule</title>
<polygon fill="#8dd3c7" stroke="#000000" points="345.0632,-187 342.0632,-191 321.0632,-191 318.0632,-187 150.9368,-187 150.9368,-151 345.0632,-151 345.0632,-187"/>
<text text-anchor="middle" x="248" y="-164.8" font-family="Times,serif" font-size="14.00" fill="#000000">NotificationDetailsPageModule</text>
</g>
<!-- NotificationDetailsPage&#45;&gt;NotificationDetailsPageModule -->
<g id="edge1" class="edge">
<title>NotificationDetailsPage&#45;&gt;NotificationDetailsPageModule</title>
<path fill="none" stroke="#000000" d="M294.8875,-122.1061C294.8875,-122.1061 294.8875,-140.991 294.8875,-140.991"/>
<polygon fill="#000000" stroke="#000000" points="291.3875,-140.9909 294.8875,-150.991 298.3875,-140.991 291.3875,-140.9909"/>
</g>
<!-- IonicImageLoader -->
<g id="node3" class="node">
<title>IonicImageLoader</title>
<polygon fill="#8dd3c7" stroke="#000000" points="220.8892,-122 217.8892,-126 196.8892,-126 193.8892,-122 101.1108,-122 101.1108,-86 220.8892,-86 220.8892,-122"/>
<text text-anchor="middle" x="161" y="-99.8" font-family="Times,serif" font-size="14.00" fill="#000000">IonicImageLoader</text>
</g>
<!-- IonicImageLoader&#45;&gt;NotificationDetailsPageModule -->
<g id="edge2" class="edge">
<title>IonicImageLoader&#45;&gt;NotificationDetailsPageModule</title>
<path fill="none" stroke="#000000" d="M185.8314,-122.1061C185.8314,-122.1061 185.8314,-140.991 185.8314,-140.991"/>
<polygon fill="#000000" stroke="#000000" points="182.3314,-140.9909 185.8314,-150.991 189.3314,-140.991 182.3314,-140.9909"/>
</g>
</g>
</svg>
