<?xml version="1.0" encoding="UTF-8" standalone="no"?>
<!DOCTYPE svg PUBLIC "-//W3C//DTD SVG 1.1//EN"
 "http://www.w3.org/Graphics/SVG/1.1/DTD/svg11.dtd">
<!-- Generated by graphviz version 2.40.1 (20161225.0304)
 -->
<!-- Title: dependencies Pages: 1 -->
<svg width="504pt" height="211pt"
 viewBox="0.00 0.00 504.00 211.00" xmlns="http://www.w3.org/2000/svg" xmlns:xlink="http://www.w3.org/1999/xlink">
<g id="graph0" class="graph" transform="scale(1 1) rotate(0) translate(4 207)">
<title>dependencies</title>
<polygon fill="#ffffff" stroke="transparent" points="-4,4 -4,-207 500,-207 500,4 -4,4"/>
<text text-anchor="start" x="227.0091" y="-42.4" font-family="sans-serif" font-weight="bold" font-size="14.00" fill="#000000">Legend</text>
<polygon fill="#ffffb3" stroke="transparent" points="14,-10 14,-30 34,-30 34,-10 14,-10"/>
<text text-anchor="start" x="37.629" y="-15.4" font-family="sans-serif" font-size="14.00" fill="#000000"> &#160;Declarations</text>
<polygon fill="#8dd3c7" stroke="transparent" points="127,-10 127,-30 147,-30 147,-10 127,-10"/>
<text text-anchor="start" x="150.7251" y="-15.4" font-family="sans-serif" font-size="14.00" fill="#000000"> &#160;Module</text>
<polygon fill="#80b1d3" stroke="transparent" points="213,-10 213,-30 233,-30 233,-10 213,-10"/>
<text text-anchor="start" x="236.7812" y="-15.4" font-family="sans-serif" font-size="14.00" fill="#000000"> &#160;Bootstrap</text>
<polygon fill="#fdb462" stroke="transparent" points="310,-10 310,-30 330,-30 330,-10 310,-10"/>
<text text-anchor="start" x="333.6732" y="-15.4" font-family="sans-serif" font-size="14.00" fill="#000000"> &#160;Providers</text>
<polygon fill="#fb8072" stroke="transparent" points="406,-10 406,-30 426,-30 426,-10 406,-10"/>
<text text-anchor="start" x="429.7258" y="-15.4" font-family="sans-serif" font-size="14.00" fill="#000000"> &#160;Exports</text>
<g id="clust1" class="cluster">
<title>cluster_AttendancePageModule</title>
<polygon fill="none" stroke="#000000" stroke-dasharray="1,5" points="107,-70 107,-195 389,-195 389,-70 107,-70"/>
</g>
<g id="clust2" class="cluster">
<title>cluster_AttendancePageModule_declarations</title>
<polygon fill="none" stroke="#000000" points="259,-78 259,-130 381,-130 381,-78 259,-78"/>
</g>
<g id="clust4" class="cluster">
<title>cluster_AttendancePageModule_imports</title>
<polygon fill="none" stroke="#000000" points="115,-78 115,-130 251,-130 251,-78 115,-78"/>
</g>
<!-- AttendancePage -->
<g id="node1" class="node">
<title>AttendancePage</title>
<polygon fill="#ffffb3" stroke="#000000" points="373.458,-122 266.542,-122 266.542,-86 373.458,-86 373.458,-122"/>
<text text-anchor="middle" x="320" y="-99.8" font-family="Times,serif" font-size="14.00" fill="#000000">AttendancePage</text>
</g>
<!-- AttendancePageModule -->
<g id="node2" class="node">
<title>AttendancePageModule</title>
<polygon fill="#8dd3c7" stroke="#000000" points="323.0086,-187 320.0086,-191 299.0086,-191 296.0086,-187 172.9914,-187 172.9914,-151 323.0086,-151 323.0086,-187"/>
<text text-anchor="middle" x="248" y="-164.8" font-family="Times,serif" font-size="14.00" fill="#000000">AttendancePageModule</text>
</g>
<!-- AttendancePage&#45;&gt;AttendancePageModule -->
<g id="edge1" class="edge">
<title>AttendancePage&#45;&gt;AttendancePageModule</title>
<path fill="none" stroke="#000000" d="M294.8875,-122.1061C294.8875,-122.1061 294.8875,-140.991 294.8875,-140.991"/>
<polygon fill="#000000" stroke="#000000" points="291.3875,-140.9909 294.8875,-150.991 298.3875,-140.991 291.3875,-140.9909"/>
</g>
<!-- IonicImageLoader -->
<g id="node3" class="node">
<title>IonicImageLoader</title>
<polygon fill="#8dd3c7" stroke="#000000" points="242.8892,-122 239.8892,-126 218.8892,-126 215.8892,-122 123.1108,-122 123.1108,-86 242.8892,-86 242.8892,-122"/>
<text text-anchor="middle" x="183" y="-99.8" font-family="Times,serif" font-size="14.00" fill="#000000">IonicImageLoader</text>
</g>
<!-- IonicImageLoader&#45;&gt;AttendancePageModule -->
<g id="edge2" class="edge">
<title>IonicImageLoader&#45;&gt;AttendancePageModule</title>
<path fill="none" stroke="#000000" d="M207.7202,-122.1061C207.7202,-122.1061 207.7202,-140.991 207.7202,-140.991"/>
<polygon fill="#000000" stroke="#000000" points="204.2203,-140.9909 207.7202,-150.991 211.2203,-140.991 204.2203,-140.9909"/>
</g>
</g>
</svg>
