<?xml version="1.0" encoding="UTF-8" standalone="no"?>
<!DOCTYPE svg PUBLIC "-//W3C//DTD SVG 1.1//EN"
 "http://www.w3.org/Graphics/SVG/1.1/DTD/svg11.dtd">
<!-- Generated by graphviz version 2.40.1 (20161225.0304)
 -->
<!-- Title: dependencies Pages: 1 -->
<svg width="4034pt" height="284pt"
 viewBox="0.00 0.00 4034.00 284.00" xmlns="http://www.w3.org/2000/svg" xmlns:xlink="http://www.w3.org/1999/xlink">
<g id="graph0" class="graph" transform="scale(1 1) rotate(0) translate(4 280)">
<title>dependencies</title>
<polygon fill="#ffffff" stroke="transparent" points="-4,4 -4,-280 4030,-280 4030,4 -4,4"/>
<text text-anchor="start" x="1992.0091" y="-42.4" font-family="sans-serif" font-weight="bold" font-size="14.00" fill="#000000">Legend</text>
<polygon fill="#ffffb3" stroke="transparent" points="1779,-10 1779,-30 1799,-30 1799,-10 1779,-10"/>
<text text-anchor="start" x="1802.629" y="-15.4" font-family="sans-serif" font-size="14.00" fill="#000000"> &#160;Declarations</text>
<polygon fill="#8dd3c7" stroke="transparent" points="1892,-10 1892,-30 1912,-30 1912,-10 1892,-10"/>
<text text-anchor="start" x="1915.7251" y="-15.4" font-family="sans-serif" font-size="14.00" fill="#000000"> &#160;Module</text>
<polygon fill="#80b1d3" stroke="transparent" points="1978,-10 1978,-30 1998,-30 1998,-10 1978,-10"/>
<text text-anchor="start" x="2001.7812" y="-15.4" font-family="sans-serif" font-size="14.00" fill="#000000"> &#160;Bootstrap</text>
<polygon fill="#fdb462" stroke="transparent" points="2075,-10 2075,-30 2095,-30 2095,-10 2075,-10"/>
<text text-anchor="start" x="2098.6732" y="-15.4" font-family="sans-serif" font-size="14.00" fill="#000000"> &#160;Providers</text>
<polygon fill="#fb8072" stroke="transparent" points="2171,-10 2171,-30 2191,-30 2191,-10 2171,-10"/>
<text text-anchor="start" x="2194.7258" y="-15.4" font-family="sans-serif" font-size="14.00" fill="#000000"> &#160;Exports</text>
<g id="clust1" class="cluster">
<title>cluster_AppModule</title>
<polygon fill="none" stroke="#000000" stroke-dasharray="1,5" points="8,-70 8,-268 4018,-268 4018,-70 8,-70"/>
</g>
<g id="clust2" class="cluster">
<title>cluster_AppModule_declarations</title>
<polygon fill="none" stroke="#000000" points="1758,-78 1758,-130 4010,-130 4010,-78 1758,-78"/>
</g>
<g id="clust16" class="cluster">
<title>cluster_AppModule_imports</title>
<polygon fill="none" stroke="#000000" points="1614,-78 1614,-130 1750,-130 1750,-78 1614,-78"/>
</g>
<g id="clust18" class="cluster">
<title>cluster_AppModule_bootstrap</title>
<polygon fill="none" stroke="#000000" points="1992,-208 1992,-260 2080,-260 2080,-208 1992,-208"/>
</g>
<g id="clust19" class="cluster">
<title>cluster_AppModule_providers</title>
<polygon fill="none" stroke="#000000" points="16,-78 16,-130 1606,-130 1606,-78 16,-78"/>
</g>
<!-- MyApp -->
<g id="node1" class="node">
<title>MyApp</title>
<polygon fill="#ffffb3" stroke="#000000" points="4001.5529,-122 3942.4471,-122 3942.4471,-86 4001.5529,-86 4001.5529,-122"/>
<text text-anchor="middle" x="3972" y="-99.8" font-family="Times,serif" font-size="14.00" fill="#000000">MyApp</text>
</g>
<!-- AppModule -->
<g id="node14" class="node">
<title>AppModule</title>
<polygon fill="#8dd3c7" stroke="#000000" points="2077.6571,-187 2074.6571,-191 2053.6571,-191 2050.6571,-187 1994.3429,-187 1994.3429,-151 2077.6571,-151 2077.6571,-187"/>
<text text-anchor="middle" x="2036" y="-164.8" font-family="Times,serif" font-size="14.00" fill="#000000">AppModule</text>
</g>
<!-- MyApp&#45;&gt;AppModule -->
<g id="edge1" class="edge">
<title>MyApp&#45;&gt;AppModule</title>
<path fill="none" stroke="#000000" d="M3972,-122.1532C3972,-145.7566 3972,-184 3972,-184 3972,-184 2087.783,-184 2087.783,-184"/>
<polygon fill="#000000" stroke="#000000" points="2087.7831,-180.5001 2077.783,-184 2087.783,-187.5001 2087.7831,-180.5001"/>
</g>
<!-- RecoverPasswordComponent -->
<g id="node2" class="node">
<title>RecoverPasswordComponent</title>
<polygon fill="#ffffb3" stroke="#000000" points="3923.6274,-122 3742.3726,-122 3742.3726,-86 3923.6274,-86 3923.6274,-122"/>
<text text-anchor="middle" x="3833" y="-99.8" font-family="Times,serif" font-size="14.00" fill="#000000">RecoverPasswordComponent</text>
</g>
<!-- RecoverPasswordComponent&#45;&gt;AppModule -->
<g id="edge2" class="edge">
<title>RecoverPasswordComponent&#45;&gt;AppModule</title>
<path fill="none" stroke="#000000" d="M3833,-122.2479C3833,-145.0179 3833,-181 3833,-181 3833,-181 2087.7744,-181 2087.7744,-181"/>
<polygon fill="#000000" stroke="#000000" points="2087.7745,-177.5001 2077.7744,-181 2087.7744,-184.5001 2087.7745,-177.5001"/>
</g>
<!-- TermsComponent -->
<g id="node3" class="node">
<title>TermsComponent</title>
<polygon fill="#ffffb3" stroke="#000000" points="3724.5954,-122 3607.4046,-122 3607.4046,-86 3724.5954,-86 3724.5954,-122"/>
<text text-anchor="middle" x="3666" y="-99.8" font-family="Times,serif" font-size="14.00" fill="#000000">TermsComponent</text>
</g>
<!-- TermsComponent&#45;&gt;AppModule -->
<g id="edge3" class="edge">
<title>TermsComponent&#45;&gt;AppModule</title>
<path fill="none" stroke="#000000" d="M3666,-122.2921C3666,-144.2057 3666,-178 3666,-178 3666,-178 2087.9304,-178 2087.9304,-178"/>
<polygon fill="#000000" stroke="#000000" points="2087.9304,-174.5001 2077.9304,-178 2087.9303,-181.5001 2087.9304,-174.5001"/>
</g>
<!-- CalendarConventionsComponent -->
<g id="node4" class="node">
<title>CalendarConventionsComponent</title>
<polygon fill="#ffffb3" stroke="#000000" points="3589.1413,-122 3386.8587,-122 3386.8587,-86 3589.1413,-86 3589.1413,-122"/>
<text text-anchor="middle" x="3488" y="-99.8" font-family="Times,serif" font-size="14.00" fill="#000000">CalendarConventionsComponent</text>
</g>
<!-- CalendarConventionsComponent&#45;&gt;AppModule -->
<g id="edge4" class="edge">
<title>CalendarConventionsComponent&#45;&gt;AppModule</title>
<path fill="none" stroke="#000000" d="M3488,-122.2843C3488,-143.3211 3488,-175 3488,-175 3488,-175 2087.8896,-175 2087.8896,-175"/>
<polygon fill="#000000" stroke="#000000" points="2087.8897,-171.5001 2077.8896,-175 2087.8896,-178.5001 2087.8897,-171.5001"/>
</g>
<!-- SeatsConventionsComponent -->
<g id="node5" class="node">
<title>SeatsConventionsComponent</title>
<polygon fill="#ffffb3" stroke="#000000" points="3368.6567,-122 3187.3433,-122 3187.3433,-86 3368.6567,-86 3368.6567,-122"/>
<text text-anchor="middle" x="3278" y="-99.8" font-family="Times,serif" font-size="14.00" fill="#000000">SeatsConventionsComponent</text>
</g>
<!-- SeatsConventionsComponent&#45;&gt;AppModule -->
<g id="edge5" class="edge">
<title>SeatsConventionsComponent&#45;&gt;AppModule</title>
<path fill="none" stroke="#000000" d="M3278,-122.2228C3278,-142.3652 3278,-172 3278,-172 3278,-172 2087.6787,-172 2087.6787,-172"/>
<polygon fill="#000000" stroke="#000000" points="2087.6787,-168.5001 2077.6787,-172 2087.6787,-175.5001 2087.6787,-168.5001"/>
</g>
<!-- AttendanceConventionsComponent -->
<g id="node6" class="node">
<title>AttendanceConventionsComponent</title>
<polygon fill="#ffffb3" stroke="#000000" points="3168.8556,-122 2953.1444,-122 2953.1444,-86 3168.8556,-86 3168.8556,-122"/>
<text text-anchor="middle" x="3061" y="-99.8" font-family="Times,serif" font-size="14.00" fill="#000000">AttendanceConventionsComponent</text>
</g>
<!-- AttendanceConventionsComponent&#45;&gt;AppModule -->
<g id="edge6" class="edge">
<title>AttendanceConventionsComponent&#45;&gt;AppModule</title>
<path fill="none" stroke="#000000" d="M3061,-122.1061C3061,-141.3391 3061,-169 3061,-169 3061,-169 2087.7709,-169 2087.7709,-169"/>
<polygon fill="#000000" stroke="#000000" points="2087.7709,-165.5001 2077.7709,-169 2087.7708,-172.5001 2087.7709,-165.5001"/>
</g>
<!-- SignupComponent -->
<g id="node7" class="node">
<title>SignupComponent</title>
<polygon fill="#ffffb3" stroke="#000000" points="2935.5056,-122 2814.4944,-122 2814.4944,-86 2935.5056,-86 2935.5056,-122"/>
<text text-anchor="middle" x="2875" y="-99.8" font-family="Times,serif" font-size="14.00" fill="#000000">SignupComponent</text>
</g>
<!-- SignupComponent&#45;&gt;AppModule -->
<g id="edge7" class="edge">
<title>SignupComponent&#45;&gt;AppModule</title>
<path fill="none" stroke="#000000" d="M2875,-122.2667C2875,-140.5552 2875,-166 2875,-166 2875,-166 2087.8932,-166 2087.8932,-166"/>
<polygon fill="#000000" stroke="#000000" points="2087.8932,-162.5001 2077.8932,-166 2087.8932,-169.5001 2087.8932,-162.5001"/>
</g>
<!-- SignupDataComponent -->
<g id="node8" class="node">
<title>SignupDataComponent</title>
<polygon fill="#ffffb3" stroke="#000000" points="2796.9326,-122 2649.0674,-122 2649.0674,-86 2796.9326,-86 2796.9326,-122"/>
<text text-anchor="middle" x="2723" y="-99.8" font-family="Times,serif" font-size="14.00" fill="#000000">SignupDataComponent</text>
</g>
<!-- SignupDataComponent&#45;&gt;AppModule -->
<g id="edge8" class="edge">
<title>SignupDataComponent&#45;&gt;AppModule</title>
<path fill="none" stroke="#000000" d="M2723,-122.0225C2723,-139.3734 2723,-163 2723,-163 2723,-163 2087.6839,-163 2087.6839,-163"/>
<polygon fill="#000000" stroke="#000000" points="2087.684,-159.5001 2077.6839,-163 2087.6839,-166.5001 2087.684,-159.5001"/>
</g>
<!-- OfflineComponent -->
<g id="node9" class="node">
<title>OfflineComponent</title>
<polygon fill="#ffffb3" stroke="#000000" points="2630.7562,-122 2509.2438,-122 2509.2438,-86 2630.7562,-86 2630.7562,-122"/>
<text text-anchor="middle" x="2570" y="-99.8" font-family="Times,serif" font-size="14.00" fill="#000000">OfflineComponent</text>
</g>
<!-- OfflineComponent&#45;&gt;AppModule -->
<g id="edge9" class="edge">
<title>OfflineComponent&#45;&gt;AppModule</title>
<path fill="none" stroke="#000000" d="M2570,-122.027C2570,-138.3976 2570,-160 2570,-160 2570,-160 2087.9021,-160 2087.9021,-160"/>
<polygon fill="#000000" stroke="#000000" points="2087.9021,-156.5001 2077.9021,-160 2087.902,-163.5001 2087.9021,-156.5001"/>
</g>
<!-- CommissionDescriptionComponent -->
<g id="node10" class="node">
<title>CommissionDescriptionComponent</title>
<polygon fill="#ffffb3" stroke="#000000" points="2490.9338,-122 2273.0662,-122 2273.0662,-86 2490.9338,-86 2490.9338,-122"/>
<text text-anchor="middle" x="2382" y="-99.8" font-family="Times,serif" font-size="14.00" fill="#000000">CommissionDescriptionComponent</text>
</g>
<!-- CommissionDescriptionComponent&#45;&gt;AppModule -->
<g id="edge10" class="edge">
<title>CommissionDescriptionComponent&#45;&gt;AppModule</title>
<path fill="none" stroke="#000000" d="M2382,-122.2396C2382,-137.5706 2382,-157 2382,-157 2382,-157 2087.7357,-157 2087.7357,-157"/>
<polygon fill="#000000" stroke="#000000" points="2087.7357,-153.5001 2077.7357,-157 2087.7356,-160.5001 2087.7357,-153.5001"/>
</g>
<!-- BillDetailsComponent -->
<g id="node11" class="node">
<title>BillDetailsComponent</title>
<polygon fill="#ffffb3" stroke="#000000" points="2254.993,-122 2113.007,-122 2113.007,-86 2254.993,-86 2254.993,-122"/>
<text text-anchor="middle" x="2184" y="-99.8" font-family="Times,serif" font-size="14.00" fill="#000000">BillDetailsComponent</text>
</g>
<!-- BillDetailsComponent&#45;&gt;AppModule -->
<g id="edge11" class="edge">
<title>BillDetailsComponent&#45;&gt;AppModule</title>
<path fill="none" stroke="#000000" d="M2184,-122.0511C2184,-136.373 2184,-154 2184,-154 2184,-154 2088.015,-154 2088.015,-154"/>
<polygon fill="#000000" stroke="#000000" points="2088.015,-150.5001 2078.015,-154 2088.0149,-157.5001 2088.015,-150.5001"/>
</g>
<!-- VotersComponent -->
<g id="node12" class="node">
<title>VotersComponent</title>
<polygon fill="#ffffb3" stroke="#000000" points="2095.1499,-122 1976.8501,-122 1976.8501,-86 2095.1499,-86 2095.1499,-122"/>
<text text-anchor="middle" x="2036" y="-99.8" font-family="Times,serif" font-size="14.00" fill="#000000">VotersComponent</text>
</g>
<!-- VotersComponent&#45;&gt;AppModule -->
<g id="edge12" class="edge">
<title>VotersComponent&#45;&gt;AppModule</title>
<path fill="none" stroke="#000000" d="M2036,-122.1061C2036,-122.1061 2036,-140.991 2036,-140.991"/>
<polygon fill="#000000" stroke="#000000" points="2032.5001,-140.9909 2036,-150.991 2039.5001,-140.991 2032.5001,-140.9909"/>
</g>
<!-- CustomNotificationComponent -->
<g id="node13" class="node">
<title>CustomNotificationComponent</title>
<polygon fill="#ffffb3" stroke="#000000" points="1958.0447,-122 1765.9553,-122 1765.9553,-86 1958.0447,-86 1958.0447,-122"/>
<text text-anchor="middle" x="1862" y="-99.8" font-family="Times,serif" font-size="14.00" fill="#000000">CustomNotificationComponent</text>
</g>
<!-- CustomNotificationComponent&#45;&gt;AppModule -->
<g id="edge13" class="edge">
<title>CustomNotificationComponent&#45;&gt;AppModule</title>
<path fill="none" stroke="#000000" d="M1862,-122.0511C1862,-136.373 1862,-154 1862,-154 1862,-154 1984.3227,-154 1984.3227,-154"/>
<polygon fill="#000000" stroke="#000000" points="1984.3227,-157.5001 1994.3227,-154 1984.3226,-150.5001 1984.3227,-157.5001"/>
</g>
<!-- IonicApp  -->
<g id="node16" class="node">
<title>IonicApp </title>
<polygon fill="#80b1d3" stroke="#000000" points="2072.3734,-252 1999.6266,-252 1999.6266,-216 2072.3734,-216 2072.3734,-252"/>
<text text-anchor="middle" x="2036" y="-229.8" font-family="Times,serif" font-size="14.00" fill="#000000">IonicApp </text>
</g>
<!-- AppModule&#45;&gt;IonicApp  -->
<g id="edge15" class="edge">
<title>AppModule&#45;&gt;IonicApp </title>
<path fill="none" stroke="#000000" stroke-dasharray="1,5" d="M2036,-187.1061C2036,-187.1061 2036,-205.991 2036,-205.991"/>
<polygon fill="#000000" stroke="#000000" points="2032.5001,-205.9909 2036,-215.991 2039.5001,-205.991 2032.5001,-205.9909"/>
</g>
<!-- IonicImageLoader -->
<g id="node15" class="node">
<title>IonicImageLoader</title>
<polygon fill="#8dd3c7" stroke="#000000" points="1741.8892,-122 1738.8892,-126 1717.8892,-126 1714.8892,-122 1622.1108,-122 1622.1108,-86 1741.8892,-86 1741.8892,-122"/>
<text text-anchor="middle" x="1682" y="-99.8" font-family="Times,serif" font-size="14.00" fill="#000000">IonicImageLoader</text>
</g>
<!-- IonicImageLoader&#45;&gt;AppModule -->
<g id="edge14" class="edge">
<title>IonicImageLoader&#45;&gt;AppModule</title>
<path fill="none" stroke="#000000" d="M1682,-122.2396C1682,-137.5706 1682,-157 1682,-157 1682,-157 1984.0014,-157 1984.0014,-157"/>
<polygon fill="#000000" stroke="#000000" points="1984.0015,-160.5001 1994.0014,-157 1984.0014,-153.5001 1984.0015,-160.5001"/>
</g>
<!-- TokenInterceptorProvider -->
<g id="node17" class="node">
<title>TokenInterceptorProvider</title>
<ellipse fill="#fdb462" stroke="#000000" cx="1487" cy="-104" rx="111.1384" ry="18"/>
<text text-anchor="middle" x="1487" y="-99.8" font-family="Times,serif" font-size="14.00" fill="#000000">TokenInterceptorProvider</text>
</g>
<!-- TokenInterceptorProvider&#45;&gt;AppModule -->
<g id="edge16" class="edge">
<title>TokenInterceptorProvider&#45;&gt;AppModule</title>
<path fill="none" stroke="#000000" d="M1487,-122.027C1487,-138.3976 1487,-160 1487,-160 1487,-160 1984.2852,-160 1984.2852,-160"/>
<polygon fill="#000000" stroke="#000000" points="1984.2852,-163.5001 1994.2852,-160 1984.2851,-156.5001 1984.2852,-163.5001"/>
</g>
<!-- AuthProvider -->
<g id="node18" class="node">
<title>AuthProvider</title>
<ellipse fill="#fdb462" stroke="#000000" cx="1294" cy="-104" rx="63.7045" ry="18"/>
<text text-anchor="middle" x="1294" y="-99.8" font-family="Times,serif" font-size="14.00" fill="#000000">AuthProvider</text>
</g>
<!-- AuthProvider&#45;&gt;AppModule -->
<g id="edge17" class="edge">
<title>AuthProvider&#45;&gt;AppModule</title>
<path fill="none" stroke="#000000" d="M1294,-122.0225C1294,-139.3734 1294,-163 1294,-163 1294,-163 1984.2493,-163 1984.2493,-163"/>
<polygon fill="#000000" stroke="#000000" points="1984.2493,-166.5001 1994.2493,-163 1984.2492,-159.5001 1984.2493,-166.5001"/>
</g>
<!-- GlobalProvider -->
<g id="node19" class="node">
<title>GlobalProvider</title>
<ellipse fill="#fdb462" stroke="#000000" cx="1142" cy="-104" rx="70.6451" ry="18"/>
<text text-anchor="middle" x="1142" y="-99.8" font-family="Times,serif" font-size="14.00" fill="#000000">GlobalProvider</text>
</g>
<!-- GlobalProvider&#45;&gt;AppModule -->
<g id="edge18" class="edge">
<title>GlobalProvider&#45;&gt;AppModule</title>
<path fill="none" stroke="#000000" d="M1142,-122.2667C1142,-140.5552 1142,-166 1142,-166 1142,-166 1984.0796,-166 1984.0796,-166"/>
<polygon fill="#000000" stroke="#000000" points="1984.0797,-169.5001 1994.0796,-166 1984.0796,-162.5001 1984.0797,-169.5001"/>
</g>
<!-- CommonProvider -->
<g id="node20" class="node">
<title>CommonProvider</title>
<ellipse fill="#fdb462" stroke="#000000" cx="973" cy="-104" rx="80.4809" ry="18"/>
<text text-anchor="middle" x="973" y="-99.8" font-family="Times,serif" font-size="14.00" fill="#000000">CommonProvider</text>
</g>
<!-- CommonProvider&#45;&gt;AppModule -->
<g id="edge19" class="edge">
<title>CommonProvider&#45;&gt;AppModule</title>
<path fill="none" stroke="#000000" d="M973,-122.1061C973,-141.3391 973,-169 973,-169 973,-169 1984.3291,-169 1984.3291,-169"/>
<polygon fill="#000000" stroke="#000000" points="1984.3292,-172.5001 1994.3291,-169 1984.3291,-165.5001 1984.3292,-172.5001"/>
</g>
<!-- StorageProvider -->
<g id="node21" class="node">
<title>StorageProvider</title>
<ellipse fill="#fdb462" stroke="#000000" cx="801" cy="-104" rx="73.5753" ry="18"/>
<text text-anchor="middle" x="801" y="-99.8" font-family="Times,serif" font-size="14.00" fill="#000000">StorageProvider</text>
</g>
<!-- StorageProvider&#45;&gt;AppModule -->
<g id="edge20" class="edge">
<title>StorageProvider&#45;&gt;AppModule</title>
<path fill="none" stroke="#000000" d="M801,-122.2228C801,-142.3652 801,-172 801,-172 801,-172 1984.2017,-172 1984.2017,-172"/>
<polygon fill="#000000" stroke="#000000" points="1984.2017,-175.5001 1994.2017,-172 1984.2016,-168.5001 1984.2017,-175.5001"/>
</g>
<!-- EndpointProvider -->
<g id="node22" class="node">
<title>EndpointProvider</title>
<ellipse fill="#fdb462" stroke="#000000" cx="630" cy="-104" rx="79.8991" ry="18"/>
<text text-anchor="middle" x="630" y="-99.8" font-family="Times,serif" font-size="14.00" fill="#000000">EndpointProvider</text>
</g>
<!-- EndpointProvider&#45;&gt;AppModule -->
<g id="edge21" class="edge">
<title>EndpointProvider&#45;&gt;AppModule</title>
<path fill="none" stroke="#000000" d="M630,-122.2843C630,-143.3211 630,-175 630,-175 630,-175 1984.3027,-175 1984.3027,-175"/>
<polygon fill="#000000" stroke="#000000" points="1984.3027,-178.5001 1994.3027,-175 1984.3026,-171.5001 1984.3027,-178.5001"/>
</g>
<!-- PopupProvider -->
<g id="node23" class="node">
<title>PopupProvider</title>
<ellipse fill="#fdb462" stroke="#000000" cx="463" cy="-104" rx="68.9448" ry="18"/>
<text text-anchor="middle" x="463" y="-99.8" font-family="Times,serif" font-size="14.00" fill="#000000">PopupProvider</text>
</g>
<!-- PopupProvider&#45;&gt;AppModule -->
<g id="edge22" class="edge">
<title>PopupProvider&#45;&gt;AppModule</title>
<path fill="none" stroke="#000000" d="M463,-122.2921C463,-144.2057 463,-178 463,-178 463,-178 1984.3312,-178 1984.3312,-178"/>
<polygon fill="#000000" stroke="#000000" points="1984.3313,-181.5001 1994.3312,-178 1984.3312,-174.5001 1984.3313,-181.5001"/>
</g>
<!-- FirebaseProvider -->
<g id="node24" class="node">
<title>FirebaseProvider</title>
<ellipse fill="#fdb462" stroke="#000000" cx="299" cy="-104" rx="77.0023" ry="18"/>
<text text-anchor="middle" x="299" y="-99.8" font-family="Times,serif" font-size="14.00" fill="#000000">FirebaseProvider</text>
</g>
<!-- FirebaseProvider&#45;&gt;AppModule -->
<g id="edge23" class="edge">
<title>FirebaseProvider&#45;&gt;AppModule</title>
<path fill="none" stroke="#000000" d="M299,-122.2479C299,-145.0179 299,-181 299,-181 299,-181 1983.9234,-181 1983.9234,-181"/>
<polygon fill="#000000" stroke="#000000" points="1983.9234,-184.5001 1993.9234,-181 1983.9233,-177.5001 1983.9234,-184.5001"/>
</g>
<!-- AppControlProvider -->
<g id="node25" class="node">
<title>AppControlProvider</title>
<ellipse fill="#fdb462" stroke="#000000" cx="114" cy="-104" rx="90.3526" ry="18"/>
<text text-anchor="middle" x="114" y="-99.8" font-family="Times,serif" font-size="14.00" fill="#000000">AppControlProvider</text>
</g>
<!-- AppControlProvider&#45;&gt;AppModule -->
<g id="edge24" class="edge">
<title>AppControlProvider&#45;&gt;AppModule</title>
<path fill="none" stroke="#000000" d="M114,-122.1532C114,-145.7566 114,-184 114,-184 114,-184 1984.0688,-184 1984.0688,-184"/>
<polygon fill="#000000" stroke="#000000" points="1984.0689,-187.5001 1994.0688,-184 1984.0688,-180.5001 1984.0689,-187.5001"/>
</g>
</g>
</svg>
