<?xml version="1.0" encoding="UTF-8" standalone="no"?>
<!DOCTYPE svg PUBLIC "-//W3C//DTD SVG 1.1//EN"
 "http://www.w3.org/Graphics/SVG/1.1/DTD/svg11.dtd">
<!-- Generated by graphviz version 2.40.1 (20161225.0304)
 -->
<!-- Title: dependencies Pages: 1 -->
<svg width="504pt" height="211pt"
 viewBox="0.00 0.00 504.00 211.00" xmlns="http://www.w3.org/2000/svg" xmlns:xlink="http://www.w3.org/1999/xlink">
<g id="graph0" class="graph" transform="scale(1 1) rotate(0) translate(4 207)">
<title>dependencies</title>
<polygon fill="#ffffff" stroke="transparent" points="-4,4 -4,-207 500,-207 500,4 -4,4"/>
<text text-anchor="start" x="227.0091" y="-42.4" font-family="sans-serif" font-weight="bold" font-size="14.00" fill="#000000">Legend</text>
<polygon fill="#ffffb3" stroke="transparent" points="14,-10 14,-30 34,-30 34,-10 14,-10"/>
<text text-anchor="start" x="37.629" y="-15.4" font-family="sans-serif" font-size="14.00" fill="#000000"> &#160;Declarations</text>
<polygon fill="#8dd3c7" stroke="transparent" points="127,-10 127,-30 147,-30 147,-10 127,-10"/>
<text text-anchor="start" x="150.7251" y="-15.4" font-family="sans-serif" font-size="14.00" fill="#000000"> &#160;Module</text>
<polygon fill="#80b1d3" stroke="transparent" points="213,-10 213,-30 233,-30 233,-10 213,-10"/>
<text text-anchor="start" x="236.7812" y="-15.4" font-family="sans-serif" font-size="14.00" fill="#000000"> &#160;Bootstrap</text>
<polygon fill="#fdb462" stroke="transparent" points="310,-10 310,-30 330,-30 330,-10 310,-10"/>
<text text-anchor="start" x="333.6732" y="-15.4" font-family="sans-serif" font-size="14.00" fill="#000000"> &#160;Providers</text>
<polygon fill="#fb8072" stroke="transparent" points="406,-10 406,-30 426,-30 426,-10 406,-10"/>
<text text-anchor="start" x="429.7258" y="-15.4" font-family="sans-serif" font-size="14.00" fill="#000000"> &#160;Exports</text>
<g id="clust1" class="cluster">
<title>cluster_SeatsPageModule</title>
<polygon fill="none" stroke="#000000" stroke-dasharray="1,5" points="124,-70 124,-195 372,-195 372,-70 124,-70"/>
</g>
<g id="clust2" class="cluster">
<title>cluster_SeatsPageModule_declarations</title>
<polygon fill="none" stroke="#000000" points="276,-78 276,-130 364,-130 364,-78 276,-78"/>
</g>
<g id="clust4" class="cluster">
<title>cluster_SeatsPageModule_imports</title>
<polygon fill="none" stroke="#000000" points="132,-78 132,-130 268,-130 268,-78 132,-78"/>
</g>
<!-- SeatsPage -->
<g id="node1" class="node">
<title>SeatsPage</title>
<polygon fill="#ffffb3" stroke="#000000" points="356.2592,-122 283.7408,-122 283.7408,-86 356.2592,-86 356.2592,-122"/>
<text text-anchor="middle" x="320" y="-99.8" font-family="Times,serif" font-size="14.00" fill="#000000">SeatsPage</text>
</g>
<!-- SeatsPageModule -->
<g id="node2" class="node">
<title>SeatsPageModule</title>
<polygon fill="#8dd3c7" stroke="#000000" points="311.309,-187 308.309,-191 287.309,-191 284.309,-187 194.691,-187 194.691,-151 311.309,-151 311.309,-187"/>
<text text-anchor="middle" x="253" y="-164.8" font-family="Times,serif" font-size="14.00" fill="#000000">SeatsPageModule</text>
</g>
<!-- SeatsPage&#45;&gt;SeatsPageModule -->
<g id="edge1" class="edge">
<title>SeatsPage&#45;&gt;SeatsPageModule</title>
<path fill="none" stroke="#000000" d="M297.3875,-122.1061C297.3875,-122.1061 297.3875,-140.991 297.3875,-140.991"/>
<polygon fill="#000000" stroke="#000000" points="293.8875,-140.9909 297.3875,-150.991 300.8875,-140.991 293.8875,-140.9909"/>
</g>
<!-- IonicImageLoader -->
<g id="node3" class="node">
<title>IonicImageLoader</title>
<polygon fill="#8dd3c7" stroke="#000000" points="259.8892,-122 256.8892,-126 235.8892,-126 232.8892,-122 140.1108,-122 140.1108,-86 259.8892,-86 259.8892,-122"/>
<text text-anchor="middle" x="200" y="-99.8" font-family="Times,serif" font-size="14.00" fill="#000000">IonicImageLoader</text>
</g>
<!-- IonicImageLoader&#45;&gt;SeatsPageModule -->
<g id="edge2" class="edge">
<title>IonicImageLoader&#45;&gt;SeatsPageModule</title>
<path fill="none" stroke="#000000" d="M227.27,-122.1061C227.27,-122.1061 227.27,-140.991 227.27,-140.991"/>
<polygon fill="#000000" stroke="#000000" points="223.7701,-140.9909 227.27,-150.991 230.7701,-140.991 223.7701,-140.9909"/>
</g>
</g>
</svg>
