<?xml version="1.0" encoding="UTF-8" standalone="no"?>
<!DOCTYPE svg PUBLIC "-//W3C//DTD SVG 1.1//EN"
 "http://www.w3.org/Graphics/SVG/1.1/DTD/svg11.dtd">
<!-- Generated by graphviz version 2.40.1 (20161225.0304)
 -->
<!-- Title: dependencies Pages: 1 -->
<svg width="504pt" height="211pt"
 viewBox="0.00 0.00 504.00 211.00" xmlns="http://www.w3.org/2000/svg" xmlns:xlink="http://www.w3.org/1999/xlink">
<g id="graph0" class="graph" transform="scale(1 1) rotate(0) translate(4 207)">
<title>dependencies</title>
<polygon fill="#ffffff" stroke="transparent" points="-4,4 -4,-207 500,-207 500,4 -4,4"/>
<text text-anchor="start" x="227.0091" y="-42.4" font-family="sans-serif" font-weight="bold" font-size="14.00" fill="#000000">Legend</text>
<polygon fill="#ffffb3" stroke="transparent" points="14,-10 14,-30 34,-30 34,-10 14,-10"/>
<text text-anchor="start" x="37.629" y="-15.4" font-family="sans-serif" font-size="14.00" fill="#000000"> &#160;Declarations</text>
<polygon fill="#8dd3c7" stroke="transparent" points="127,-10 127,-30 147,-30 147,-10 127,-10"/>
<text text-anchor="start" x="150.7251" y="-15.4" font-family="sans-serif" font-size="14.00" fill="#000000"> &#160;Module</text>
<polygon fill="#80b1d3" stroke="transparent" points="213,-10 213,-30 233,-30 233,-10 213,-10"/>
<text text-anchor="start" x="236.7812" y="-15.4" font-family="sans-serif" font-size="14.00" fill="#000000"> &#160;Bootstrap</text>
<polygon fill="#fdb462" stroke="transparent" points="310,-10 310,-30 330,-30 330,-10 310,-10"/>
<text text-anchor="start" x="333.6732" y="-15.4" font-family="sans-serif" font-size="14.00" fill="#000000"> &#160;Providers</text>
<polygon fill="#fb8072" stroke="transparent" points="406,-10 406,-30 426,-30 426,-10 406,-10"/>
<text text-anchor="start" x="429.7258" y="-15.4" font-family="sans-serif" font-size="14.00" fill="#000000"> &#160;Exports</text>
<g id="clust1" class="cluster">
<title>cluster_CommissionsListPageModule</title>
<polygon fill="none" stroke="#000000" stroke-dasharray="1,5" points="89,-70 89,-195 407,-195 407,-70 89,-70"/>
</g>
<g id="clust2" class="cluster">
<title>cluster_CommissionsListPageModule_declarations</title>
<polygon fill="none" stroke="#000000" points="241,-78 241,-130 399,-130 399,-78 241,-78"/>
</g>
<g id="clust4" class="cluster">
<title>cluster_CommissionsListPageModule_imports</title>
<polygon fill="none" stroke="#000000" points="97,-78 97,-130 233,-130 233,-78 97,-78"/>
</g>
<!-- CommissionsListPage -->
<g id="node1" class="node">
<title>CommissionsListPage</title>
<polygon fill="#ffffb3" stroke="#000000" points="390.7232,-122 249.2768,-122 249.2768,-86 390.7232,-86 390.7232,-122"/>
<text text-anchor="middle" x="320" y="-99.8" font-family="Times,serif" font-size="14.00" fill="#000000">CommissionsListPage</text>
</g>
<!-- CommissionsListPageModule -->
<g id="node2" class="node">
<title>CommissionsListPageModule</title>
<polygon fill="#8dd3c7" stroke="#000000" points="340.2729,-187 337.2729,-191 316.2729,-191 313.2729,-187 155.7271,-187 155.7271,-151 340.2729,-151 340.2729,-187"/>
<text text-anchor="middle" x="248" y="-164.8" font-family="Times,serif" font-size="14.00" fill="#000000">CommissionsListPageModule</text>
</g>
<!-- CommissionsListPage&#45;&gt;CommissionsListPageModule -->
<g id="edge1" class="edge">
<title>CommissionsListPage&#45;&gt;CommissionsListPageModule</title>
<path fill="none" stroke="#000000" d="M294.8875,-122.1061C294.8875,-122.1061 294.8875,-140.991 294.8875,-140.991"/>
<polygon fill="#000000" stroke="#000000" points="291.3875,-140.9909 294.8875,-150.991 298.3875,-140.991 291.3875,-140.9909"/>
</g>
<!-- IonicImageLoader -->
<g id="node3" class="node">
<title>IonicImageLoader</title>
<polygon fill="#8dd3c7" stroke="#000000" points="224.8892,-122 221.8892,-126 200.8892,-126 197.8892,-122 105.1108,-122 105.1108,-86 224.8892,-86 224.8892,-122"/>
<text text-anchor="middle" x="165" y="-99.8" font-family="Times,serif" font-size="14.00" fill="#000000">IonicImageLoader</text>
</g>
<!-- IonicImageLoader&#45;&gt;CommissionsListPageModule -->
<g id="edge2" class="edge">
<title>IonicImageLoader&#45;&gt;CommissionsListPageModule</title>
<path fill="none" stroke="#000000" d="M190.154,-122.1061C190.154,-122.1061 190.154,-140.991 190.154,-140.991"/>
<polygon fill="#000000" stroke="#000000" points="186.654,-140.9909 190.154,-150.991 193.654,-140.991 186.654,-140.9909"/>
</g>
</g>
</svg>
